<svg id="Layer_1" data-name="Layer 1" xmlns="http://www.w3.org/2000/svg" viewBox="0 0 338.4 72.47"><defs><style>.cls-1{fill:#fc0;}.cls-2{fill:#f33;}</style></defs><title>vcuarts_logo_websafe</title><path class="cls-1" d="M41.97 15.23l-12.76 40.2h-.16l-12.07-40.2H0l19.14 55.49h18.37l19.75-55.49H41.97zM147.91 15.24v34c-.23 7.09-3.17 11.56-10.41 11.56s-10.16-4.45-10.39-11.56v-34H111.7v35.17c.15 15.48 11.79 21.57 25.82 21.57s25.66-6.09 25.82-21.57V15.24h-15.43zM81.67 61.15c-8.73 0-10.51-9.58-10.51-17.69 0-8.32 1.62-18.72 10.44-18.77 6.27 0 8.51 2.88 8.89 7.88h16.22c.22-13.6-12.34-18.38-25.4-18.68-17.14.28-26.4 10.35-26.4 28.95s9.35 29.13 26.73 29.13h1.27c13-.3 24.16-5.37 23.94-19h-16.2c-.31 5.32-2.49 8.18-8.98 8.18z"/><path class="cls-2" d="M279.03 53.76V27.83h8.63V14.95h-8.63v-15l-15.7 4h-.06v50.54c.12 10.56 2.65 17.11 14.92 17.11a85.14 85.14 0 0 0 9.76-.9h.07V58.78h-4.2c-3.18 0-4.79-1.69-4.79-5.02zM239.49 25.16h-.09l-.32-9.86v-.06h-13.86V70.7h15.83V43.6c0-5.3 1.17-9.1 3.49-11.62 2.56-2.77 6.62-4.11 12.41-4.11h1.35V14.56h-.08c-9.72-.26-15.68 3.11-18.73 10.6zM201.69 14.36h-.09l-.95-.12h-.14l-.9-.1H195.39a29.08 29.08 0 0 0-15.27 4c-4.68 2.69-7.11 7.16-7.21 13.27v-.17h15v-.14a8 8 0 0 1 2.05-5.6 6.75 6.75 0 0 1 5.2-2.18H196.31a6.84 6.84 0 0 1 6.7 6.66v5.44h-3.56a50.6 50.6 0 0 0-16 2.15c-.89.3-1.6.57-2.27.86a20.84 20.84 0 0 0-3.27 1.81 18.34 18.34 0 0 0-6.24 7.07 19.82 19.82 0 0 0-1 2.48 20.42 20.42 0 0 0-.85 3.41 16.9 16.9 0 0 0-.22 2.67 15.73 15.73 0 0 0 5.3 11.93 15.1 15.1 0 0 0 1.21.92h.13c.43.29.83.54 1.23.76l.13.07.11.05c.47.25.86.44 1.22.6l.21.08.16.06c.37.15.77.31 1.19.45l.33.1.09.17h.12c.32.09.65.19 1 .27l.48.1h.26l.26.05.72.14.77.09h.55l.48.05c.62 0 1.25.07 1.88.07h.82c6.91 0 12-2.32 15.54-7.06l1.4 5.78h13.72V34.31c-.1-14.18-9.42-18.68-17.22-19.95zm-7.9 46.49h-.52a7.55 7.55 0 0 1-7.87-7.19 7 7 0 0 1 2-5.17c1.48-1.47 4.48-3.4 13.38-3.4h2.32v1.86c.06 5 .12 9.25-2.28 11.68-1.45 1.47-3.74 2.19-7 2.2h-.07zM338.4 53.78v-.29c0-10.85-8.37-14.4-17.76-16.92-1.09-.33-10.42-2.6-11.73-3.33a3.57 3.57 0 0 1-1.62-1.57 4.86 4.86 0 0 1-.42-1.54v-.16-.07-.33c.07-1.49 1.25-4.55 6.92-4.55 4.08 0 7.09 1.37 8.26 4.57a14.2 14.2 0 0 1 .58 2.28v.07h13.82v-.1c-.89-11-10.33-18-22.23-18-7.47 0-22.21 2.71-22.31 17.23 0 9.68 8.74 14 16.64 16.14 4.49 1.2 9.17 2.51 10.76 3.14a6.54 6.54 0 0 1 2.82 1.72 3.18 3.18 0 0 1 .79 2.27v.16c-.05 2.6-2.34 5.07-8.39 5.07-5.28 0-9.25-2.07-9.85-8l-.09.09H290.7v.94c.21 11.64 8.9 19.87 22.82 19.87h.05c14.5 0 24.83-6.37 24.83-18.29-.01-.12 0-.26 0-.4z"/></svg>