<?xml version="1.0" encoding="utf-8"?>
<!-- Generator: Adobe Illustrator 24.1.2, SVG Export Plug-In . SVG Version: 6.00 Build 0)  -->
<svg version="1.1" id="Layer_1" xmlns="http://www.w3.org/2000/svg" xmlns:xlink="http://www.w3.org/1999/xlink" x="0px" y="0px"
	 viewBox="0 0 1048 1555.4" style="enable-background:new 0 0 1048 1555.4;" xml:space="preserve">
<style type="text/css">
	.st0{fill:#0346A2;}
	.st1{fill:none;stroke:#0346A2;stroke-width:3;stroke-linecap:round;stroke-linejoin:round;}
</style>
<g id="text">
	<path class="st0" d="M599.7,1153.2c0.1,2.3-0.7,4.6-2.2,6.4c-1.2,1.4-2.9,2.1-4.7,2.1c-0.7,0-1.4-0.1-2.1-0.3
		c-0.2-0.1-0.4-0.2-0.5-0.3c-0.2-0.1-0.5,0-0.6,0.2c0,0,0,0,0,0v3.4c-0.1,0.6,0,1.2,0.2,1.8c0.1,0.2,0.3,0.4,0.5,0.5
		c0.4,0.2,0.8,0.3,1.2,0.2h0c0.3,0,0.5,0.2,0.5,0.5s-0.2,0.5-0.5,0.5h-7.1c-0.3,0-0.5-0.2-0.5-0.5s0.2-0.5,0.5-0.5h0.2
		c0.5,0,0.9-0.1,1.3-0.3c0.2-0.1,0.3-0.3,0.4-0.5c0.1-0.6,0.2-1.3,0.2-1.9v-13.8c0-0.6,0-1.2-0.1-1.7c0-0.2-0.2-0.4-0.3-0.5
		c-0.2-0.1-0.4-0.2-0.7-0.2c-0.2,0-0.4,0-0.6,0.1l0,0c-0.2,0.1-0.5,0-0.6-0.3s0-0.5,0.3-0.6l4.3-1.8c0.5,0,0.8,0.4,0.8,0.8v1.3
		c0,0.1,0.1,0.2,0.2,0.3c0,0,0.1,0,0.1,0c0.4-0.7,1-1.2,1.6-1.7c0.7-0.5,1.6-0.8,2.5-0.8c1.5,0,2.9,0.6,3.8,1.8
		C599.1,1149.1,599.8,1151.2,599.7,1153.2z M595.2,1149.9c-0.5-0.8-1.4-1.4-2.3-1.5h-0.1c-0.5,0-1,0.1-1.4,0.4
		c-0.1,0.1-0.2,0.1-0.3,0.2c-0.6,0.4-1,1-1.3,1.7l-0.1,0.3c-0.1,0.4-0.2,0.7-0.2,1.1v3.8c0,0.8,0,1.5,0.1,2.3c0.2,0.6,0.5,1.1,1,1.5
		c0.6,0.4,1.3,0.7,2.1,0.6c1,0,1.9-0.4,2.4-1.2c0.9-1.3,1.4-2.9,1.3-4.5c0-1.1-0.1-2.1-0.4-3.1c-0.1-0.2,0.1,0.1,0,0
		C595.8,1151,595.5,1150.4,595.2,1149.9L595.2,1149.9z"/>
	<path class="st0" d="M614.8,1158.5v0.4c0,0.1,0,0.2-0.1,0.2l-0.1,0.1c-0.6,0.9-1.3,1.5-2.2,2c0,0-0.1,0-0.1,0h-0.1
		c-0.3,0.1-0.6,0.2-0.9,0.2c-0.5,0-1-0.2-1.4-0.6c-0.2-0.3-0.3-0.6-0.4-0.9c-0.3-0.1-0.7-0.1-1,0c-0.5,0.4-1,0.8-1.6,1.1
		c-0.6,0.2-1.2,0.4-1.9,0.4c-1,0-1.9-0.4-2.6-1.1c-0.7-0.8-1-1.8-1-2.8c0-0.7,0.1-1.4,0.5-2c0.6-0.9,1.4-1.6,2.3-2.1
		c1.7-0.9,3.4-1.7,5.2-2.3v-0.4c0.1-1-0.1-2-0.6-2.9c-0.5-0.5-1.2-0.8-1.8-0.7c-0.5,0-1.1,0.1-1.5,0.5c-0.3,0.3-0.5,0.7-0.5,1.1v0.9
		c0,0.5-0.1,0.9-0.4,1.3c-0.3,0.3-0.7,0.5-1.1,0.4c-0.4,0-0.8-0.2-1.1-0.5c-0.3-0.4-0.4-0.8-0.4-1.3c0.1-1.1,0.6-2,1.5-2.6
		c1.2-0.8,2.6-1.3,4-1.2c1.1,0,2.2,0.2,3.2,0.7c0.7,0.4,1.2,0.9,1.5,1.6c0.3,0.9,0.4,1.9,0.3,2.8v4.9c0,0.8,0,1.7,0.1,2.5
		c0,0.3,0.1,0.5,0.2,0.5c0.1,0.1,0.2,0.1,0.3,0.1c0.1,0,0.3,0,0.4-0.1c0.4-0.2,0.7-0.5,1-0.8c0.2-0.1,0.4-0.1,0.5,0.1
		C614.8,1158.3,614.8,1158.4,614.8,1158.5z M604.9,1158.7c0.3,0.4,0.9,0.7,1.4,0.7c0.6,0,1.2-0.2,1.7-0.6c0.6-0.7,1.1-1.5,1.3-2.4
		v-2.6c-0.1-0.4-0.3-0.7-0.6-0.9c-1,0.5-1.8,0.8-2.2,1c-0.7,0.3-1.3,0.8-1.7,1.4C604.1,1156.3,604.1,1157.7,604.9,1158.7
		L604.9,1158.7z"/>
	<path class="st0" d="M617.4,1147.4c0-0.1-0.1-0.1-0.1-0.1h-1.9h-0.1c-0.2,0-0.4-0.2-0.4-0.4c0,0,0,0,0,0v-0.2
		c0-0.2,0.2-0.4,0.4-0.4c0,0,0,0,0,0c0.3-0.1,0.6-0.1,0.8-0.2c0.4-0.1,0.8-0.4,1.1-0.7c0.8-0.8,1.4-1.8,1.8-2.8
		c0.1-0.3,0.3-1,0.5-1.4c0-0.2,0.2-0.3,0.3-0.3c0.2,0,0.4,0.1,0.4,0.3c0,0.4,0,0.8,0,0.9v2.4c0,0,0,0.1,0,0.1c0.3,0.6,0.9,1,1.6,1
		h1.1c0.4,0,0.8,0.3,0.8,0.8s-0.3,0.8-0.8,0.8h-1.5c-0.2,0-0.4,0-0.7,0c-0.4,0.3-0.3,1-0.4,1.9c0,0.4-0.1,0.7-0.1,1.1v6.3
		c-0.1,0.6,0.1,1.2,0.4,1.8c0.2,0.3,0.5,0.4,0.9,0.4c0.3,0,0.6-0.1,0.9-0.3c0.2-0.2,0.4-0.4,0.6-0.6c0.1-0.2,0.3-0.3,0.5-0.2
		c0.3,0,0.5,0.3,0.4,0.5c0,0,0,0.1,0,0.1l-0.1,0.2c-0.3,0.7-0.7,1.3-1.3,1.7c-0.6,0.5-1.4,0.8-2.2,0.8c-0.5,0-1.1-0.2-1.5-0.4
		c-0.5-0.3-0.9-0.7-1.1-1.3c-0.3-0.8-0.4-1.6-0.3-2.4c0,0,0.2-4.2,0.3-5.6C617.5,1150,617.5,1148.7,617.4,1147.4z"/>
	<path class="st0" d="M632.2,1160.1v0.9h-7.4v-0.9h0.2c0.4,0,0.9,0,1.3-0.2c0.2-0.1,0.4-0.4,0.5-0.6c0.2-0.6,0.2-1.2,0.2-1.7v-5.6
		c0-1,0-2-0.2-3c0-0.2-0.1-0.4-0.3-0.6c-0.1-0.1-0.3-0.2-0.5-0.2c-0.2,0-0.4,0-0.6,0.1l-0.1,0.1c-0.3,0.1-0.5,0-0.6-0.3
		c-0.1-0.2,0-0.5,0.3-0.6c0,0,0,0,0,0l4.1-1.7c0.5,0,0.9,0.4,0.9,0.9c0,0,0,0,0,0v10.9c0,0.6,0,1.2,0.2,1.7c0.1,0.2,0.3,0.5,0.5,0.6
		c0.4,0.2,0.9,0.2,1.3,0.2L632.2,1160.1z M627.2,1141.3c-0.3-0.3-0.5-0.8-0.5-1.3c0-0.5,0.2-0.9,0.5-1.3c0.3-0.3,0.8-0.5,1.3-0.5
		c1,0,1.8,0.8,1.8,1.8c0,1-0.8,1.8-1.8,1.8C628,1141.8,627.6,1141.6,627.2,1141.3L627.2,1141.3z"/>
	<path class="st0" d="M648.1,1153.5c0,1.4-0.3,2.8-0.9,4c-1.1,2.5-3.6,4.1-6.3,4.1c-2.1,0.1-4.1-0.9-5.3-2.7c-1.1-1.4-1.7-3.2-1.6-5
		c0-1.4,0.4-2.8,1-4c1.1-2.4,3.5-3.9,6.1-3.9c2.1-0.1,4.1,0.9,5.4,2.5C647.6,1149.9,648.2,1151.7,648.1,1153.5z M643.9,1158.8
		c0.6-0.8,1-2.2,1-4.2l0,0c0-2.3-0.8-4.6-2.2-6.4l0,0c-0.2-0.2-0.4-0.4-0.6-0.5c-0.5-0.2-1-0.3-1.5-0.3c-0.6,0-1.1,0.2-1.6,0.5
		c-0.6,0.4-1,1-1.3,1.6c-0.4,1-0.5,2.1-0.5,3.1c0,1.8,0.4,3.7,1.2,5.3c0.5,1.3,1.7,2.1,3.1,2.2
		C642.5,1160.1,643.4,1159.6,643.9,1158.8z"/>
	<path class="st0" d="M486,1413.5c0.3-0.1,0.6-0.2,0.9-0.2c0.6,0,1.1,0.2,1.6,0.6c0.4,0.3,0.6,0.8,0.6,1.4c0,0.4-0.2,0.9-0.5,1.2
		c-0.3,0.3-0.7,0.5-1.1,0.5c-0.5,0-1-0.2-1.4-0.6c-0.5-0.4-0.8-0.5-0.9-0.5c-0.2,0-0.4,0.1-0.5,0.2l-0.1,0.1c-0.5,0.5-0.8,1.1-1,1.7
		c-0.1,0.3-0.2,0.7-0.2,1c-0.1,0.3-0.1,0.7-0.1,1v5c0,0.6,0.1,1.2,0.3,1.7c0.1,0.3,0.4,0.5,0.6,0.6c0.3,0.2,0.7,0.3,1,0.2h0.1
		c0.3,0,0.5,0.2,0.5,0.5c0,0.3-0.2,0.5-0.5,0.5c0,0,0,0,0,0h-6.8c-0.3,0-0.5-0.2-0.5-0.5c0,0,0,0,0,0c0-0.2,0.2-0.5,0.4-0.5
		c0,0,0,0,0,0h0.1c0.4,0,0.8-0.1,1.2-0.3c0.2-0.2,0.4-0.4,0.5-0.7c0.1-0.5,0.1-1,0.1-1.5v-5.6c0-1,0-2-0.1-3c0-0.2-0.1-0.4-0.3-0.6
		c-0.2-0.1-0.4-0.2-0.6-0.2c-0.2,0-0.4,0-0.6,0.1h-0.1c-0.3,0.1-0.5,0-0.6-0.3c0,0,0,0,0,0c-0.1-0.2,0-0.5,0.3-0.6l4.1-1.7
		c0.5,0,0.9,0.4,0.9,0.9v0v0.9c0,0.2,0.1,0.3,0.3,0.3c0.1,0,0.1,0,0.2,0l0,0c0.4-0.6,1-1.1,1.6-1.6L486,1413.5z"/>
	<path class="st0" d="M504.1,1420.9c0,1.4-0.3,2.8-1,4c-1.1,2.5-3.6,4.1-6.3,4.1c-2.1,0.1-4.1-0.9-5.3-2.7c-1.1-1.4-1.7-3.2-1.6-5
		c0-1.4,0.4-2.8,1-4c1.1-2.4,3.5-3.9,6.1-3.9c2.1-0.1,4.1,0.9,5.4,2.6C503.5,1417.3,504.1,1419.1,504.1,1420.9z M499.9,1426.3
		c0.6-0.8,1-2.2,1-4.2l0,0c0-2.3-0.8-4.6-2.2-6.4l0,0c-0.2-0.2-0.4-0.4-0.6-0.5c-0.5-0.2-1-0.3-1.5-0.3c-0.6,0-1.1,0.2-1.6,0.5
		c-0.6,0.4-1.1,1-1.3,1.6c-0.4,1-0.5,2.1-0.5,3.1c0,1.8,0.4,3.7,1.2,5.3c0.5,1.3,1.7,2.1,3.1,2.2
		C498.5,1427.5,499.4,1427,499.9,1426.3z"/>
	<path class="st0" d="M520.5,1420.9c0,1.4-0.3,2.8-0.9,4c-1.1,2.5-3.6,4.1-6.3,4.1c-2.1,0.1-4.1-0.9-5.3-2.7c-1.1-1.4-1.7-3.2-1.6-5
		c0-1.4,0.4-2.8,1-4c1.1-2.4,3.5-3.9,6.1-3.9c2.1-0.1,4.1,0.9,5.4,2.6C519.9,1417.3,520.5,1419.1,520.5,1420.9z M516.2,1426.3
		c0.6-0.8,1-2.2,1-4.2l0,0c0-2.3-0.8-4.6-2.2-6.4l0,0c-0.2-0.2-0.4-0.4-0.6-0.5c-0.5-0.2-1-0.3-1.5-0.3c-0.6,0-1.1,0.2-1.6,0.5
		c-0.6,0.4-1.1,1-1.3,1.6c-0.4,1-0.5,2.1-0.5,3.1c0,1.8,0.4,3.7,1.2,5.3c0.5,1.3,1.7,2.1,3.1,2.2
		C514.9,1427.5,515.7,1427,516.2,1426.3z"/>
	<path class="st0" d="M546.3,1427.5c0.3,0,0.5,0.2,0.5,0.5c0,0.3-0.2,0.5-0.5,0.5h-6.5c-0.3,0-0.5-0.2-0.5-0.5
		c0-0.3,0.2-0.5,0.5-0.5h0.2c0.4,0,0.8-0.1,1.2-0.3c0.2-0.2,0.4-0.4,0.4-0.7c0-0.5,0-1,0-1.4v-6.1c0.1-0.8-0.1-1.6-0.4-2.4
		c-0.4-0.6-1.1-0.9-1.8-0.9c-0.5,0-1.1,0.1-1.6,0.4c-0.7,0.4-1.4,0.9-1.9,1.4v0.1v0.6v6.8c0,0.6,0,1.2,0.1,1.7
		c0.1,0.2,0.3,0.4,0.5,0.5c0.3,0.2,0.7,0.2,1.1,0.2l0,0c0.3,0,0.5,0.2,0.5,0.5c0,0.3-0.2,0.5-0.5,0.5c0,0,0,0,0,0h-6.6
		c-0.3,0-0.5-0.2-0.5-0.5c0-0.3,0.2-0.5,0.5-0.5c0,0,0,0,0,0h0.1c0.9,0,0.9-0.1,1.1-0.2c0.3-0.2,0.5-0.4,0.5-0.7
		c0.1-0.5,0.1-1,0.1-1.5v-6.1c0.1-0.8-0.1-1.7-0.5-2.4c-0.4-0.6-1-0.9-1.7-0.9c-0.6,0-1.1,0.2-1.6,0.4l0,0c-0.8,0.4-1.3,1.1-1.6,1.9
		c-0.1,0.4-0.2,0.9-0.3,1.3v5.8c0,0.6,0,1.2,0.2,1.7c0.1,0.2,0.3,0.4,0.5,0.5c0.2,0.1,0.1,0.2,1,0.2h0.2c0.2,0,0.5,0.2,0.5,0.4
		c0,0,0,0,0,0c0,0.3-0.2,0.5-0.5,0.5h-6.5c-0.3,0-0.5-0.2-0.5-0.5c0-0.3,0.2-0.5,0.5-0.5c0,0,0,0,0,0h0.1c0.8,0,0.8-0.1,0.9-0.2
		c0.2-0.1,0.4-0.3,0.5-0.6c0.2-0.5,0.2-1.1,0.2-1.7v-5.4c0-1,0-2-0.1-3c0-0.2-0.1-0.4-0.3-0.6c-0.1-0.1-0.3-0.2-0.5-0.1
		c-0.2,0-0.4,0-0.6,0.1h-0.1c-0.3,0.1-0.5,0-0.6-0.3c0,0,0,0,0,0c-0.1-0.3,0-0.5,0.3-0.7l4-1.6c0.5,0,0.9,0.4,0.9,0.9v0v1.6
		c0,0.1,0.1,0.1,0.2,0.1c0.8-0.8,1.2-1.2,1.4-1.3c0.4-0.4,1-0.7,1.5-0.9c0.5-0.2,1.1-0.4,1.7-0.4c0.9,0,1.7,0.3,2.4,0.8
		c0.4,0.3,0.7,0.7,0.9,1.2c0.4,0.2,0.8,0.1,1.2-0.1c0.5-0.5,1.1-1,1.7-1.3c0.7-0.4,1.5-0.6,2.3-0.6c0.7,0,1.5,0.2,2.1,0.6
		c0.7,0.5,1.2,1.2,1.5,2c0.3,0.9,0.4,1.9,0.3,2.9v6.1c0,0.6,0,1.2,0.2,1.7c0.1,0.2,0.3,0.4,0.5,0.5
		C545.5,1427.4,545.9,1427.5,546.3,1427.5L546.3,1427.5z"/>
	<path class="st0" d="M569,1420.3h0.7c0.7,0.1,1.2,0.7,1.1,1.3c-0.1,0.6-0.5,1.1-1.1,1.1H569c-0.5,0.2-0.9,0.7-1,1.3v3
		c0,0.8-0.6,1.4-1.4,1.4s-1.4-0.6-1.4-1.4l0,0v-2.9c-0.2-0.7-0.7-1.2-1.3-1.4h-6.1c-0.9,0-1.6-0.7-1.6-1.6c0,0,0,0,0,0
		c0-0.3,0.1-0.7,0.3-0.9l9.3-13.4c0.4-0.6,1.2-0.7,1.7-0.3c0.3,0.2,0.5,0.6,0.5,1v11.5C568.1,1419.6,568.5,1420.1,569,1420.3z
		 M565.3,1419v-7.8c-0.1-0.3-0.3-0.4-0.7-0.2l-5.8,8.2c-0.1,0.2-0.2,0.4-0.2,0.6c0,0.3,0.3,0.6,0.6,0.7h4.7
		C564.6,1420.1,565.1,1419.6,565.3,1419L565.3,1419z"/>
	<path class="st0" d="M430.4,383.5c0.3-0.1,0.6-0.2,1-0.2c0.6,0,1.1,0.2,1.6,0.6c0.4,0.3,0.6,0.8,0.6,1.4c0,0.4-0.2,0.9-0.5,1.2
		c-0.3,0.3-0.7,0.5-1.1,0.5c-0.5,0-1-0.2-1.4-0.6c-0.5-0.4-0.8-0.5-0.9-0.5c-0.2,0-0.4,0.1-0.5,0.3l-0.1,0.1c-0.5,0.5-0.8,1.1-1,1.7
		c-0.1,0.3-0.2,0.7-0.2,1c-0.1,0.3-0.1,0.7-0.1,1v5c0,0.6,0.1,1.2,0.3,1.7c0.1,0.3,0.4,0.5,0.6,0.6c0.3,0.2,0.7,0.3,1,0.2h0.1
		c0.3,0,0.5,0.2,0.5,0.5c0,0.3-0.2,0.5-0.5,0.5h-6.8c-0.3,0-0.5-0.2-0.5-0.4c0,0,0,0,0,0c0-0.3,0.2-0.5,0.5-0.5l0,0h0.1
		c0.4,0.1,0.8-0.1,1.2-0.3c0.2-0.2,0.4-0.4,0.5-0.7c0.1-0.5,0.1-1,0.1-1.5v-5.6c0-1,0-2-0.1-3c0-0.2-0.1-0.4-0.3-0.6
		c-0.2-0.1-0.4-0.2-0.6-0.2c-0.2,0-0.4,0-0.6,0.1h-0.1c-0.2,0.1-0.5,0-0.6-0.3c0,0,0,0,0-0.1c-0.1-0.2,0.1-0.5,0.3-0.6l4.1-1.7
		c0.5,0,0.9,0.4,0.9,0.9c0,0,0,0,0,0v0.9c0,0.2,0.1,0.3,0.3,0.3c0.1,0,0.1,0,0.2,0l0,0c0.4-0.6,1-1.1,1.6-1.6L430.4,383.5z"/>
	<path class="st0" d="M448.6,390.9c0,1.4-0.3,2.8-0.9,4c-1.1,2.5-3.6,4.1-6.3,4.1c-2.1,0.1-4.1-0.9-5.3-2.6c-1.1-1.4-1.7-3.2-1.6-5
		c0-1.4,0.4-2.8,1-4c0.6-1.2,1.5-2.3,2.6-3c1-0.6,2.2-1,3.5-1c2.1-0.1,4.1,0.9,5.4,2.5C448,387.3,448.6,389.1,448.6,390.9z
		 M444.3,396.3c0.6-0.8,1-2.2,1-4.2l0,0c0-2.3-0.8-4.6-2.2-6.4l0,0c-0.2-0.2-0.4-0.4-0.6-0.5c-0.5-0.2-1-0.3-1.5-0.3
		c-0.6,0-1.1,0.2-1.6,0.5c-0.6,0.4-1,1-1.3,1.6c-0.4,1-0.5,2.1-0.5,3.1c0,1.8,0.4,3.7,1.2,5.3c0.5,1.3,1.7,2.1,3.1,2.2
		C443,397.5,443.8,397.1,444.3,396.3z"/>
	<path class="st0" d="M464.9,390.9c0,1.4-0.3,2.8-1,4c-1.1,2.5-3.6,4.1-6.3,4.1c-2.1,0.1-4.1-0.9-5.3-2.6c-1.1-1.4-1.7-3.2-1.6-5
		c0-1.4,0.4-2.8,1-4c1.1-2.4,3.5-3.9,6.1-3.9c2.1-0.1,4.1,0.9,5.4,2.6C464.3,387.4,464.9,389.1,464.9,390.9z M460.7,396.3
		c0.6-0.8,1-2.2,1-4.2l0,0c0-2.3-0.8-4.6-2.2-6.4l0,0c-0.2-0.2-0.4-0.4-0.6-0.5c-0.5-0.2-1-0.3-1.5-0.3c-0.6,0-1.1,0.2-1.6,0.5
		c-0.6,0.4-1.1,1-1.3,1.6c-0.4,1-0.5,2-0.5,3c0,1.8,0.4,3.7,1.2,5.3c0.5,1.3,1.7,2.1,3.1,2.2C459.3,397.5,460.1,397.1,460.7,396.3z"
		/>
	<path class="st0" d="M490.8,397.5c0.3,0,0.5,0.2,0.5,0.5c0,0,0,0,0,0c0,0.3-0.2,0.5-0.5,0.5h-6.5c-0.2,0-0.4-0.2-0.5-0.4
		c0,0,0,0,0,0c0-0.3,0.2-0.5,0.4-0.5c0,0,0,0,0,0h0.2c0.4,0,0.8-0.1,1.1-0.3c0.2-0.2,0.4-0.4,0.4-0.7c0-0.1,0-0.4,0-1.4V389
		c0.1-0.8-0.1-1.6-0.4-2.4c-0.4-0.6-1.1-0.9-1.8-0.9c-0.5,0-1.1,0.1-1.6,0.4c-0.7,0.4-1.3,0.9-1.9,1.5v0.1v0.6v6.8
		c0,0.6,0,1.2,0.1,1.7c0.1,0.2,0.3,0.4,0.5,0.5c0.4,0.2,0.7,0.3,1.1,0.2l0,0c0.3,0,0.5,0.2,0.5,0.5c0,0,0,0,0,0
		c0,0.3-0.2,0.5-0.5,0.5c0,0,0,0,0,0h-6.5c-0.3,0-0.5-0.2-0.5-0.5c0,0,0,0,0,0c0-0.3,0.2-0.5,0.5-0.5c0,0,0,0,0,0h0.1
		c0.9,0,0.9-0.1,1.1-0.2c0.3-0.2,0.5-0.4,0.5-0.7c0.1-0.5,0.1-1,0.1-1.5V389c0.1-0.8-0.1-1.7-0.5-2.4c-0.4-0.6-1-0.9-1.7-0.9
		c-0.6,0-1.1,0.2-1.6,0.5l0,0c-0.8,0.4-1.3,1.1-1.6,2c-0.1,0.4-0.2,0.9-0.3,1.3v5.8c0,0.6,0,1.2,0.2,1.7c0.1,0.2,0.3,0.4,0.5,0.5
		c0.2,0.1,0.1,0.2,1,0.2h0.2c0.2,0,0.5,0.2,0.5,0.4c0,0,0,0,0,0c0,0.3-0.2,0.5-0.5,0.5c0,0,0,0,0,0h-6.5c-0.3,0-0.5-0.2-0.5-0.4
		c0,0,0,0,0,0c0-0.3,0.2-0.5,0.5-0.5c0,0,0,0,0,0h0.1c0.8,0,0.8-0.1,0.9-0.2c0.2-0.1,0.4-0.3,0.5-0.6c0.2-0.5,0.2-1.1,0.2-1.7v-5.5
		c0-1,0-2-0.1-3c0-0.2-0.1-0.4-0.3-0.6c-0.1-0.1-0.3-0.2-0.5-0.1c-0.2,0-0.4,0-0.6,0.1h-0.1c-0.3,0.1-0.5,0-0.6-0.3
		c-0.1-0.3,0-0.5,0.3-0.7l4-1.6c0.5,0,0.9,0.4,0.9,0.9c0,0,0,0,0,0v1.7c0,0.1,0.1,0.1,0.2,0.1c0.8-0.8,1.2-1.2,1.4-1.3
		c0.5-0.4,1-0.7,1.5-0.9c0.5-0.2,1.1-0.3,1.7-0.4c0.9,0,1.7,0.3,2.4,0.8c0.4,0.3,0.7,0.7,1,1.2c0.4,0.2,0.8,0.1,1.1-0.1
		c0.5-0.5,1.1-1,1.7-1.3c0.7-0.4,1.5-0.6,2.4-0.6c0.7,0,1.5,0.2,2.1,0.6c0.7,0.5,1.2,1.2,1.5,2c0.3,0.9,0.4,1.9,0.4,2.9v6.1
		c0,0.6,0,1.2,0.2,1.7c0.1,0.2,0.3,0.4,0.5,0.5C490.1,397.6,490.4,397.6,490.8,397.5L490.8,397.5z"/>
	<path class="st0" d="M510.1,396.2c0.8-0.8,1.2-1.8,1.2-2.9c0-0.8-0.2-1.7-0.5-2.4c-0.2-0.5-0.5-0.9-0.9-1.3
		c-0.5-0.5-1.2-0.9-1.9-1.1c-0.7-0.3-1.6-0.5-2.4-0.5h-0.2c-0.2,0-0.3-0.2-0.4-0.3c0-0.2,0.1-0.3,0.3-0.4l0.5-0.1
		c0.7-0.1,1.3-0.3,1.8-0.8c1.5-0.8,2.4-2.3,2.4-4c0-1-0.3-1.9-1-2.6c-0.7-0.7-1.6-1-2.5-1c-0.7,0-1.4,0.2-2.1,0.6
		c-0.2,0.1-0.5,0.3-0.6,0.5l-0.7,0.7l-0.2,0.2c-0.1,0.1,0,0-0.2,0.2l-0.2,0.2c-0.1,0.2-0.3,0.2-0.5,0.1c-0.2-0.1-0.3-0.3-0.2-0.5
		l0.2-0.5c0.4-1.1,1.1-2,2-2.6c1-0.8,2.3-1.3,3.6-1.2c0.8,0,1.6,0.1,2.3,0.4c0.7,0.3,1.3,0.7,1.7,1.3c0.7,0.8,1,1.7,1,2.7
		c0,0.9-0.3,1.7-0.8,2.5c-0.3,0.5-0.7,1-1.1,1.4c-0.3,0.3-0.4,0.7-0.2,1.1l0,0c0.1,0.2,0.2,0.4,0.5,0.5c0.6,0.4,1.2,0.9,1.7,1.5
		c0.7,1,1,2.2,1,3.5c0,0.9-0.2,1.8-0.5,2.6c-0.3,0.8-0.8,1.6-1.3,2.3c-0.8,0.9-1.8,1.6-2.9,2c-1.2,0.5-2.6,0.7-3.9,0.7
		c-1,0.1-2.1-0.1-3-0.6c-0.5-0.2-0.8-0.7-0.8-1.2c0-0.3,0.2-0.7,0.4-0.9c0.3-0.3,0.6-0.4,1-0.4c0.3,0,0.6,0,0.8,0.1
		c0.2,0.1,0.6,0.3,1.2,0.6c0.4,0.2,0.8,0.4,1.3,0.6c0.4,0.1,0.8,0.2,1.2,0.2C508.4,397.5,509.4,397,510.1,396.2z"/>
	<path class="st0" d="M142.3,322.8c0.3-0.1,0.6-0.2,0.9-0.2c0.6,0,1.1,0.2,1.6,0.6c0.4,0.3,0.6,0.8,0.6,1.4c0,0.4-0.2,0.8-0.5,1.2
		c-0.3,0.3-0.7,0.5-1.1,0.5c-0.5,0-1-0.2-1.4-0.6c-0.5-0.4-0.8-0.5-0.9-0.5c-0.2,0-0.4,0.1-0.5,0.2l-0.1,0.1c-0.5,0.5-0.8,1.1-1,1.7
		c-0.1,0.3-0.2,0.7-0.2,1c-0.1,0.3-0.1,0.7-0.1,1v5c0,0.6,0.1,1.2,0.3,1.7c0.1,0.3,0.4,0.5,0.6,0.6c0.3,0.2,0.7,0.3,1,0.2h0.1
		c0.3,0,0.5,0.2,0.5,0.5c0,0.3-0.2,0.5-0.5,0.5c0,0,0,0,0,0H135c-0.3,0-0.5-0.2-0.5-0.5c0,0,0,0,0,0c0-0.2,0.2-0.5,0.4-0.5
		c0,0,0,0,0,0h0.1c0.4,0.1,0.8-0.1,1.2-0.3c0.2-0.2,0.4-0.4,0.5-0.7c0.1-0.5,0.1-1,0.1-1.5v-5.6c0-1,0-2-0.1-3
		c0-0.2-0.1-0.4-0.3-0.6c-0.2-0.1-0.4-0.2-0.6-0.2c-0.2,0-0.4,0-0.6,0.1h-0.1c-0.3,0.1-0.5,0-0.6-0.3c0,0,0,0,0,0
		c-0.1-0.2,0-0.5,0.3-0.6l4.1-1.7c0.5,0,0.9,0.4,0.9,0.9v0.9c0,0.2,0.1,0.3,0.3,0.3c0.1,0,0.1,0,0.2,0l0,0c0.4-0.6,1-1.1,1.6-1.6
		L142.3,322.8z"/>
	<path class="st0" d="M160.5,330.2c0,1.4-0.4,2.8-1,4c-1.1,2.5-3.6,4.1-6.3,4.1c-2.1,0.1-4.1-0.9-5.3-2.6c-1.1-1.4-1.7-3.2-1.6-5
		c0-1.4,0.4-2.8,1-4c1.1-2.4,3.5-3.9,6.1-3.9c2.1-0.1,4.1,0.9,5.4,2.5C159.8,326.6,160.5,328.4,160.5,330.2z M156.2,335.5
		c0.6-0.8,1-2.2,1-4.2v0c0-2.3-0.8-4.6-2.2-6.4l0,0c-0.2-0.2-0.4-0.4-0.6-0.5c-0.5-0.2-1-0.3-1.5-0.3c-0.6,0-1.1,0.2-1.6,0.5
		c-0.6,0.4-1.1,1-1.3,1.6c-0.4,1-0.5,2.1-0.5,3.1c0,1.8,0.4,3.7,1.2,5.3c0.5,1.3,1.7,2.1,3.1,2.2
		C154.8,336.7,155.7,336.3,156.2,335.5L156.2,335.5z"/>
	<path class="st0" d="M176.8,330.2c0,1.4-0.3,2.8-0.9,4c-1.1,2.5-3.6,4.1-6.3,4.1c-2.1,0.1-4.1-0.9-5.3-2.6c-1.1-1.4-1.7-3.2-1.6-5
		c0-1.4,0.4-2.8,1-4c1.1-2.4,3.5-3.9,6.1-3.9c2.1-0.1,4.1,0.9,5.4,2.5C176.2,326.6,176.8,328.4,176.8,330.2z M172.6,335.5
		c0.6-0.8,1-2.2,1-4.2v0c0-2.3-0.8-4.6-2.2-6.4l0,0c-0.2-0.2-0.4-0.4-0.6-0.5c-0.5-0.2-1-0.3-1.5-0.3c-0.6,0-1.1,0.2-1.6,0.5
		c-0.6,0.4-1.1,1-1.3,1.6c-0.4,1-0.5,2.1-0.5,3.1c0,1.8,0.4,3.7,1.2,5.3c0.5,1.3,1.7,2.1,3.1,2.2C171.2,336.7,172,336.3,172.6,335.5
		z"/>
	<path class="st0" d="M202.6,336.8c0.3,0,0.5,0.2,0.5,0.5s-0.2,0.5-0.5,0.5h-6.5c-0.3,0-0.5-0.2-0.5-0.5s0.2-0.5,0.5-0.5l0,0h0.2
		c0.4,0,0.8-0.1,1.1-0.3c0.2-0.2,0.4-0.4,0.4-0.7c0-0.5,0-1,0-1.4v-6.1c0.1-0.8-0.1-1.6-0.4-2.4c-0.4-0.6-1.1-0.9-1.8-0.9
		c-0.5,0-1.1,0.1-1.6,0.4c-0.7,0.4-1.4,0.9-1.9,1.5v0.1v0.6v6.8c0,0.6,0,1.2,0.1,1.7c0.1,0.2,0.3,0.4,0.5,0.5
		c0.3,0.2,0.7,0.3,1.1,0.2l0,0c0.3,0,0.5,0.2,0.5,0.5s-0.2,0.5-0.5,0.5h-6.6c-0.3,0-0.5-0.2-0.5-0.5s0.2-0.5,0.5-0.5l0,0h0.1
		c0.9,0,0.9-0.1,1.1-0.2c0.3-0.2,0.5-0.4,0.5-0.7c0.1-0.5,0.1-1,0.1-1.5v-6.1c0.1-0.8-0.1-1.7-0.5-2.4c-0.4-0.6-1-0.9-1.8-0.9
		c-0.6,0-1.1,0.2-1.6,0.5l0,0c-0.8,0.4-1.3,1.1-1.6,1.9c-0.1,0.4-0.2,0.9-0.3,1.3v5.8c0,0.6,0,1.2,0.2,1.7c0.1,0.2,0.3,0.4,0.5,0.5
		c0.2,0.1,0.1,0.2,1,0.2h0.2c0.3,0,0.5,0.2,0.5,0.4c0,0,0,0,0,0c0,0.3-0.2,0.5-0.5,0.5H179c-0.3,0-0.5-0.2-0.5-0.5s0.2-0.5,0.5-0.5
		l0,0h0.1c0.8,0,0.8-0.1,0.9-0.2c0.2-0.1,0.4-0.3,0.5-0.6c0.2-0.5,0.2-1.1,0.2-1.7v-5.5c0-1,0-2-0.1-3c0-0.2-0.1-0.4-0.3-0.6
		c-0.1-0.1-0.3-0.2-0.5-0.1c-0.2,0-0.4,0-0.6,0.1h-0.1c-0.3,0.1-0.5,0-0.6-0.3c0,0,0,0,0,0c-0.1-0.3,0-0.5,0.3-0.7l4-1.6
		c0.5,0,0.9,0.4,0.9,0.9c0,0,0,0,0,0v1.6c0,0.1,0.1,0.1,0.2,0.1c0.8-0.8,1.2-1.2,1.4-1.3c0.4-0.4,1-0.7,1.5-0.9
		c0.5-0.2,1.1-0.4,1.7-0.4c0.9,0,1.7,0.3,2.4,0.8c0.4,0.3,0.7,0.7,0.9,1.2c0.4,0.2,0.8,0.1,1.1-0.1c0.5-0.5,1.1-1,1.7-1.3
		c0.7-0.4,1.5-0.6,2.4-0.6c0.7,0,1.5,0.2,2.1,0.6c0.7,0.5,1.2,1.2,1.5,2c0.3,0.9,0.4,1.9,0.4,2.9v6.1c0,0.6,0,1.2,0.2,1.7
		c0.1,0.2,0.3,0.4,0.5,0.5C201.8,336.7,202.2,336.8,202.6,336.8L202.6,336.8z"/>
	<path class="st0" d="M226.3,333.6c0.1-0.1,0.2-0.2,0.3-0.2c0.2,0,0.4,0.2,0.4,0.4c0,0,0,0.1,0,0.1l-0.9,2.4
		c-0.3,0.8-1.1,1.4-1.9,1.4h-10.9c-0.3,0-0.5-0.2-0.5-0.5c0-0.1,0.1-0.3,0.2-0.4l0.5-0.5c1.1-1,1.4-1.4,2.4-2.3
		c0.7-0.7,1.6-1.6,2.4-2.5c0.9-0.9,1.7-1.9,2.4-3c0.7-1,1.3-2,1.7-3.1c0.4-0.9,0.5-1.8,0.6-2.8c0-1.2-0.4-2.4-1.2-3.3
		c-0.8-0.9-1.9-1.3-3-1.3c-1,0-1.9,0.3-2.8,0.9c-0.8,0.5-1.4,1.2-1.6,2.1l-0.2,0.4c-0.1,0.2-0.2,0.3-0.4,0.3c-0.2,0-0.4-0.2-0.4-0.4
		c0,0,0,0,0-0.1V321c0.3-3.2,3-5.6,6.1-5.5c0.8,0,1.7,0.1,2.4,0.4c0.7,0.3,1.4,0.7,2,1.3c0.6,0.5,1,1.2,1.4,1.9
		c0.3,0.7,0.4,1.4,0.4,2.2c0,1.1-0.3,2.3-0.8,3.3c-1,2-2.3,3.9-3.9,5.5c-1.7,1.9-3,3.3-3.9,4.2c-0.2,0.2-0.2,0.5,0,0.7
		c0.1,0.1,0.1,0.1,0.2,0.1l0,0h0.2h4.2c0.8,0,1.6,0,2.4-0.1c0.4-0.1,0.8-0.3,1.2-0.5c0.4-0.2,0.4-0.2,0.6-0.6L226.3,333.6z"/>
	<path class="st0" d="M542.7,157.3c0.3-0.1,0.6-0.2,0.9-0.2c0.6,0,1.1,0.2,1.6,0.6c0.4,0.3,0.6,0.8,0.6,1.4c0,0.4-0.2,0.9-0.5,1.2
		c-0.3,0.3-0.7,0.5-1.1,0.5c-0.5,0-1-0.2-1.4-0.6c-0.5-0.4-0.8-0.5-0.9-0.5c-0.2,0-0.3,0.1-0.5,0.3l-0.1,0.1c-0.5,0.5-0.8,1.1-1,1.8
		c-0.1,0.3-0.2,0.7-0.2,1c-0.1,0.3-0.1,0.7-0.1,1v5c0,0.6,0.1,1.2,0.3,1.7c0.3,0.6,1,0.9,1.6,0.9h0.1c0.3,0,0.5,0.2,0.5,0.5
		c0,0.3-0.2,0.5-0.5,0.5h-6.8c-0.3,0-0.5-0.2-0.5-0.5s0.2-0.5,0.5-0.5h0.1c0.4,0.1,0.8-0.1,1.2-0.3c0.2-0.2,0.4-0.4,0.5-0.7
		c0.1-0.5,0.1-1,0.1-1.5v-5.6c0-1,0-2-0.1-2.9c0-0.2-0.1-0.4-0.3-0.6c-0.2-0.1-0.4-0.2-0.6-0.2c-0.2,0-0.4,0-0.6,0.1h-0.1
		c-0.3,0.1-0.5,0-0.6-0.3c0,0,0,0,0,0c-0.1-0.2,0.1-0.5,0.3-0.6l4.1-1.7c0.5,0,0.9,0.4,0.9,0.9v0.9c0,0.2,0.1,0.3,0.3,0.3
		c0.1,0,0.1,0,0.2,0l0,0c0.4-0.6,0.9-1.1,1.6-1.6L542.7,157.3z"/>
	<path class="st0" d="M560.8,164.7c0,1.4-0.3,2.8-0.9,4c-0.6,1.2-1.5,2.3-2.6,3c-1.1,0.7-2.4,1-3.7,1c-2.1,0.1-4.1-0.9-5.3-2.6
		c-1.1-1.4-1.7-3.2-1.7-5c0-1.4,0.4-2.8,1-4c0.6-1.2,1.5-2.2,2.7-2.9c1-0.6,2.2-1,3.5-1c2.1-0.1,4.1,0.9,5.4,2.5
		C560.3,161.1,560.9,162.9,560.8,164.7z M556.6,170.1c0.6-0.8,1-2.2,1-4.2v-0.1c0-2.3-0.8-4.6-2.2-6.4l0,0c-0.2-0.2-0.4-0.4-0.6-0.6
		c-0.5-0.2-1-0.3-1.5-0.3c-0.6,0-1.1,0.2-1.6,0.5c-0.6,0.4-1.1,1-1.3,1.6c-0.4,1-0.5,2.1-0.5,3.1c0,1.8,0.4,3.7,1.2,5.3
		c0.5,1.3,1.7,2.1,3.1,2.2C555.2,171.3,556.1,170.9,556.6,170.1z"/>
	<path class="st0" d="M577.2,164.7c0,1.4-0.3,2.8-0.9,4c-1.1,2.5-3.6,4.1-6.3,4.1c-2.1,0.1-4.1-0.9-5.3-2.6c-1.1-1.4-1.7-3.2-1.6-5
		c0-1.4,0.4-2.8,1-4c1.1-2.4,3.5-3.9,6.1-3.9c2.1-0.1,4.1,0.9,5.4,2.5C576.6,161.2,577.2,162.9,577.2,164.7z M572.9,170.1
		c0.6-0.8,1-2.2,1-4.2v-0.1c0-2.3-0.8-4.6-2.2-6.4l0,0c-0.2-0.2-0.4-0.4-0.6-0.6c-0.5-0.2-1-0.3-1.5-0.3c-0.6,0-1.1,0.2-1.6,0.5
		c-0.6,0.4-1.1,1-1.3,1.6c-0.4,1-0.5,2.1-0.5,3.1c0,1.8,0.4,3.7,1.2,5.3c0.5,1.3,1.7,2.1,3.1,2.2
		C571.6,171.3,572.4,170.9,572.9,170.1z"/>
	<path class="st0" d="M603,171.4c0.3,0,0.5,0.2,0.5,0.5s-0.2,0.5-0.5,0.5h-6.5c-0.2,0-0.4-0.2-0.4-0.5c0,0,0,0,0,0
		c0-0.2,0.2-0.5,0.4-0.5c0,0,0,0,0,0h0.2c0.4,0,0.8-0.1,1.2-0.3c0.2-0.2,0.4-0.4,0.4-0.7c0-0.5,0-1,0-1.4v-6.1
		c0.1-0.8-0.1-1.6-0.4-2.4c-0.4-0.6-1.1-0.9-1.8-0.9c-0.5,0-1.1,0.1-1.6,0.4c-0.7,0.4-1.3,0.9-1.9,1.4v0.1v0.6v6.8
		c0,0.6,0,1.2,0.1,1.7c0.1,0.2,0.3,0.4,0.5,0.5c0.4,0.2,0.7,0.3,1.1,0.2l0,0c0.3,0,0.5,0.2,0.5,0.5s-0.2,0.5-0.5,0.5H588
		c-0.3,0-0.5-0.2-0.5-0.5s0.2-0.5,0.5-0.5l0,0h0.1c0.9,0,0.9-0.1,1.1-0.2c0.3-0.2,0.5-0.4,0.5-0.7c0.1-0.5,0.1-1,0.1-1.5v-6.1
		c0.1-0.8-0.1-1.7-0.5-2.4c-0.4-0.6-1-0.9-1.7-0.9c-0.6,0-1.1,0.2-1.6,0.4l0,0c-0.8,0.4-1.3,1.1-1.6,2c-0.1,0.4-0.2,0.8-0.3,1.3v5.8
		c0,0.6,0,1.2,0.2,1.7c0.1,0.2,0.3,0.4,0.5,0.5c0.2,0.1,0.1,0.2,1,0.2h0.2c0.2,0,0.5,0.2,0.5,0.4c0,0,0,0,0,0c0,0.3-0.2,0.5-0.5,0.5
		h-6.5c-0.3,0-0.5-0.2-0.5-0.5s0.2-0.5,0.5-0.5h0.1c0.8,0,0.8-0.1,0.9-0.2c0.2-0.1,0.4-0.3,0.5-0.6c0.2-0.5,0.2-1.1,0.2-1.7v-5.4
		c0-1,0-2-0.1-3c0-0.2-0.1-0.4-0.3-0.6c-0.2-0.1-0.3-0.2-0.5-0.1c-0.2,0-0.4,0-0.6,0.1h-0.1c-0.3,0.1-0.5,0-0.6-0.3c0,0,0,0,0,0
		c-0.1-0.3,0-0.5,0.3-0.6l4-1.6c0.5,0,0.9,0.4,0.9,0.9v1.6c0,0.1,0.1,0.1,0.2,0.1c0.8-0.8,1.2-1.2,1.4-1.3c0.5-0.4,1-0.7,1.5-0.9
		c0.5-0.2,1.1-0.3,1.7-0.4c0.9,0,1.7,0.3,2.4,0.8c0.4,0.3,0.7,0.7,0.9,1.2c0.4,0.2,0.8,0.1,1.2-0.1c0.5-0.5,1.1-1,1.7-1.3
		c0.7-0.4,1.5-0.6,2.3-0.6c0.7,0,1.5,0.2,2.1,0.6c0.7,0.5,1.2,1.2,1.5,2c0.3,0.9,0.4,1.9,0.4,2.9v6.1c0,0.6,0,1.2,0.2,1.8
		c0.1,0.2,0.3,0.4,0.5,0.5C602.4,171.4,602.7,171.4,603,171.4L603,171.4z"/>
	<path class="st0" d="M623.8,171.5h0.3c0.2,0,0.4,0.1,0.4,0.3s-0.1,0.4-0.3,0.4c0,0-0.1,0-0.1,0h-7.4c-0.2,0-0.4-0.2-0.4-0.4
		c0-0.2,0.2-0.4,0.3-0.4c0,0,0,0,0,0h0.3c1,0,1.1-0.1,1.4-0.2c0.2-0.1,0.4-0.3,0.6-0.6c0.1-0.7,0.2-1.5,0.2-2.3v-11.5c0-1,0-2-0.2-3
		c0-0.3-0.2-0.5-0.4-0.7c-0.2-0.1-0.4-0.2-0.7-0.2c-0.4,0-0.8,0.1-1.2,0.3l-0.2,0.1c-0.2,0.1-0.4,0-0.5-0.2c-0.1-0.2,0-0.4,0.1-0.5
		c0,0,0,0,0,0l5-2.4c0.3,0,0.6,0.3,0.6,0.6v17.5c0,0.7,0,1.5,0.1,2.2c0.1,0.3,0.3,0.5,0.6,0.6C622.8,171.4,622.8,171.5,623.8,171.5z
		"/>
</g>
<g id="final_trace">
	<rect x="3.5" y="9.9" class="st1" width="386.8" height="1024.6"/>
	<rect x="21.4" y="133.7" class="st1" width="355" height="883.2"/>
	<line class="st1" x1="21.4" y1="133.7" x2="21.4" y2="56.5"/>
	<polyline class="st1" points="21.9,90.9 130.9,90.9 130.9,133.2 130.9,9.9 	"/>
	<line class="st1" x1="376.4" y1="133.7" x2="376.4" y2="9.9"/>
	<rect x="376.4" y="265.1" class="st1" width="13.4" height="71.8"/>
	<rect x="21.4" y="460.9" class="st1" width="29.2" height="32.3"/>
	<rect x="344.4" y="460.9" class="st1" width="32.4" height="32.4"/>
	<line class="st1" x1="21.4" y1="1016.9" x2="3.3" y2="1016.9"/>
	<line class="st1" x1="376.4" y1="1016.9" x2="376.4" y2="1034"/>
	<polyline class="st1" points="150.2,1016.9 150.2,1059.4 288.9,1059.4 288.9,1016.9 	"/>
	<line class="st1" x1="376" y1="415.5" x2="390.8" y2="415.5"/>
	<polyline class="st1" points="390.1,612.1 570.3,612.1 570.3,626 389.9,626 	"/>
	<rect x="554.1" y="278.7" class="st1" width="16.2" height="333.4"/>
	<rect x="391.2" y="265.1" class="st1" width="410.2" height="12.2"/>
	<rect x="390.3" y="9.9" class="st1" width="411.1" height="255.3"/>
	<line class="st1" x1="570.3" y1="397.5" x2="698.6" y2="279.1"/>
	<line class="st1" x1="390.8" y1="798.8" x2="801.4" y2="411.1"/>
	<polyline class="st1" points="801.4,621.1 390.3,1034.3 801.4,1034.3 801.4,277.3 	"/>
	<line class="st1" x1="631.8" y1="1034.3" x2="800.5" y2="859.7"/>
	<polyline class="st1" points="853.9,1253.9 1.5,1253.9 1.5,1553.9 1046,1553.9 1046,9.8 801.4,9.8 	"/>
	<polyline class="st1" points="852.5,20 852.5,1.5 985,1.5 985,20 	"/>
	<line class="st1" x1="376.5" y1="68.2" x2="801.4" y2="68.2"/>
	<polyline class="st1" points="801.4,157.1 785.2,157.1 785.2,265.1 	"/>
	<line class="st1" x1="987.6" y1="1253.9" x2="1046.5" y2="1253.9"/>
</g>
</svg>
